<svg width="91" height="91" viewBox="0 0 91 91" fill="none" xmlns="http://www.w3.org/2000/svg">
<path d="M45.667 90.2576C70.5198 90.2576 90.667 70.1104 90.667 45.2576C90.667 20.4048 70.5198 0.257568 45.667 0.257568C20.8142 0.257568 0.666992 20.4048 0.666992 45.2576C0.666992 70.1104 20.8142 90.2576 45.667 90.2576Z" fill="#347FEF" fill-opacity="0.07"/>
<path d="M70.1357 68.8826H65.917V43.5701C65.917 43.3463 65.8281 43.1317 65.6699 42.9734C65.5116 42.8152 65.297 42.7263 65.0732 42.7263H60.0107C59.787 42.7263 59.5724 42.8152 59.4141 42.9734C59.2559 43.1317 59.167 43.3463 59.167 43.5701V68.8826H57.4795V50.3201C57.4795 50.0963 57.3906 49.8817 57.2324 49.7234C57.0741 49.5652 56.8595 49.4763 56.6357 49.4763H51.5732C51.3495 49.4763 51.1349 49.5652 50.9766 49.7234C50.8184 49.8817 50.7295 50.0963 50.7295 50.3201V68.8826H49.042V47.7888C49.042 47.565 48.9531 47.3504 48.7949 47.1922C48.6366 47.034 48.422 46.9451 48.1982 46.9451H43.1357C42.912 46.9451 42.6974 47.034 42.5391 47.1922C42.3809 47.3504 42.292 47.565 42.292 47.7888V68.8826H40.6045V51.1638C40.6045 50.94 40.5156 50.7254 40.3574 50.5672C40.1991 50.409 39.9845 50.3201 39.7607 50.3201H34.6982C34.4745 50.3201 34.2599 50.409 34.1016 50.5672C33.9434 50.7254 33.8545 50.94 33.8545 51.1638V68.8826H32.167V54.5388C32.167 54.315 32.0781 54.1004 31.9199 53.9422C31.7616 53.784 31.547 53.6951 31.3232 53.6951H26.2607C26.037 53.6951 25.8224 53.784 25.6641 53.9422C25.5059 54.1004 25.417 54.315 25.417 54.5388V68.8826H21.1982C20.9745 68.8826 20.7599 68.9715 20.6016 69.1297C20.4434 69.2879 20.3545 69.5025 20.3545 69.7263C20.3545 69.9501 20.4434 70.1647 20.6016 70.3229C20.7599 70.4812 20.9745 70.5701 21.1982 70.5701H70.1357C70.3595 70.5701 70.5741 70.4812 70.7324 70.3229C70.8906 70.1647 70.9795 69.9501 70.9795 69.7263C70.9795 69.5025 70.8906 69.2879 70.7324 69.1297C70.5741 68.9715 70.3595 68.8826 70.1357 68.8826ZM27.1045 68.8826V55.3826H30.4795V68.8826H27.1045ZM35.542 68.8826V52.0076H38.917V68.8826H35.542ZM43.9795 68.8826V48.6326H47.3545V68.8826H43.9795ZM52.417 68.8826V51.1638H55.792V68.8826H52.417ZM60.8545 68.8826V44.4138H64.2295V68.8826H60.8545Z" fill="#132E52"/>
<path d="M22.8859 52.8513C23 52.8513 23.113 52.828 23.2178 52.783L26.9321 51.1911C27.2771 51.566 27.7272 51.828 28.2235 51.9428C28.7199 52.0576 29.2393 52.0199 29.7139 51.8346C30.1884 51.6493 30.5959 51.325 30.8831 50.9042C31.1703 50.4834 31.3238 49.9858 31.3234 49.4763C31.3234 49.4418 31.3221 49.4078 31.3208 49.3736L35.3286 47.7705C35.6678 48.1577 36.117 48.4322 36.6163 48.5573C37.1155 48.6825 37.6411 48.6524 38.1228 48.4709C38.6045 48.2895 39.0194 47.9655 39.3121 47.5421C39.6048 47.1187 39.7614 46.616 39.7609 46.1013C39.7609 46.0668 39.7596 46.0328 39.7583 45.9986L43.7661 44.3955C44.0158 44.6806 44.3264 44.9059 44.6749 45.0547C45.0234 45.2035 45.401 45.272 45.7796 45.2552C46.1582 45.2383 46.5281 45.1365 46.8621 44.9573C47.196 44.7781 47.4854 44.5261 47.7087 44.22L51.576 45.3801C51.5937 45.7514 51.6929 46.1142 51.8666 46.4429C52.0403 46.7715 52.2842 47.0578 52.5811 47.2815C52.8779 47.5052 53.2204 47.6608 53.5842 47.7372C53.9479 47.8136 54.3241 47.8089 54.6858 47.7235C55.0476 47.6382 55.3861 47.4742 55.6773 47.2432C55.9686 47.0122 56.2053 46.72 56.3709 46.3871C56.5364 46.0543 56.6266 45.6892 56.635 45.3176C56.6435 44.946 56.57 44.5771 56.4198 44.2371L61.1554 39.78C61.6306 40.0921 62.1971 40.235 62.7635 40.1855C63.3299 40.1361 63.8632 39.8973 64.2772 39.5076C64.6912 39.118 64.9619 38.6002 65.0455 38.0378C65.1291 37.4754 65.0209 36.9013 64.7381 36.408L67.6047 33.7103V34.2888C67.6047 34.5126 67.6936 34.7272 67.8518 34.8854C68.01 35.0437 68.2246 35.1326 68.4484 35.1326C68.6722 35.1326 68.8868 35.0437 69.045 34.8854C69.2033 34.7272 69.2922 34.5126 69.2922 34.2888V31.7576C69.2922 31.5338 69.2033 31.3192 69.045 31.1609C68.8868 31.0027 68.6722 30.9138 68.4484 30.9138H65.9172C65.6934 30.9138 65.4788 31.0027 65.3205 31.1609C65.1623 31.3192 65.0734 31.5338 65.0734 31.7576C65.0734 31.9813 65.1623 32.196 65.3205 32.3542C65.4788 32.5124 65.6934 32.6013 65.9172 32.6013H66.3209L63.4513 35.3021C63.0064 35.1306 62.5222 35.0883 62.0543 35.18C61.5864 35.2717 61.154 35.4937 60.8068 35.8205C60.4596 36.1472 60.2118 36.5654 60.0919 37.0269C59.972 37.4883 59.9848 37.9742 60.129 38.4287L55.2631 43.0083C54.7273 42.7313 54.11 42.6553 53.5229 42.7939C52.9358 42.9325 52.4177 43.2767 52.0624 43.7641L48.195 42.604C48.1611 41.9455 47.8715 41.3263 47.388 40.8781C46.9044 40.4298 46.2651 40.1879 45.606 40.2039C44.9468 40.2198 44.3199 40.4923 43.8586 40.9634C43.3973 41.4345 43.138 42.067 43.1359 42.7263C43.1359 42.7608 43.1372 42.795 43.1385 42.829L39.1307 44.4322C38.7916 44.045 38.3424 43.7705 37.8431 43.6453C37.3438 43.5202 36.8182 43.5503 36.3365 43.7317C35.8548 43.9131 35.4399 44.2371 35.1472 44.6605C34.8545 45.084 34.6979 45.5866 34.6984 46.1013C34.6984 46.1358 34.6997 46.1699 34.701 46.204L30.6932 47.8072C30.3541 47.42 29.9049 47.1455 29.4056 47.0203C28.9063 46.8952 28.3807 46.9253 27.899 47.1067C27.4173 47.2881 27.0024 47.6121 26.7097 48.0355C26.417 48.459 26.2604 48.9616 26.2609 49.4763C26.2609 49.5316 26.2633 49.5862 26.2668 49.6406L22.5536 51.232C22.3749 51.3085 22.2281 51.4443 22.1381 51.6165C22.048 51.7888 22.0201 51.9868 22.0592 52.1772C22.0983 52.3676 22.2019 52.5386 22.3525 52.6615C22.5031 52.7843 22.6916 52.8514 22.8859 52.8513ZM62.5422 36.8201C62.709 36.8201 62.8722 36.8696 63.0109 36.9623C63.1497 37.055 63.2578 37.1868 63.3217 37.3409C63.3855 37.4951 63.4023 37.6648 63.3697 37.8284C63.3371 37.9921 63.2568 38.1424 63.1388 38.2604C63.0208 38.3784 62.8704 38.4588 62.7068 38.4914C62.5431 38.5239 62.3734 38.5072 62.2193 38.4433C62.0651 38.3795 61.9333 38.2713 61.8406 38.1326C61.7479 37.9938 61.6984 37.8307 61.6984 37.6638C61.6987 37.4401 61.7876 37.2257 61.9458 37.0675C62.104 36.9093 62.3185 36.8203 62.5422 36.8201ZM54.1047 44.4138C54.2715 44.4138 54.4347 44.4633 54.5734 44.556C54.7122 44.6487 54.8203 44.7805 54.8842 44.9347C54.948 45.0889 54.9648 45.2585 54.9322 45.4222C54.8996 45.5858 54.8193 45.7362 54.7013 45.8542C54.5833 45.9722 54.4329 46.0525 54.2693 46.0851C54.1056 46.1177 53.9359 46.101 53.7818 46.0371C53.6276 45.9732 53.4958 45.8651 53.4031 45.7263C53.3104 45.5876 53.2609 45.4244 53.2609 45.2576C53.2612 45.0339 53.3501 44.8194 53.5083 44.6612C53.6665 44.503 53.881 44.4141 54.1047 44.4138ZM45.6672 41.8826C45.834 41.8826 45.9972 41.9321 46.1359 42.0248C46.2747 42.1175 46.3828 42.2493 46.4467 42.4034C46.5105 42.5576 46.5273 42.7273 46.4947 42.8909C46.4621 43.0546 46.3818 43.2049 46.2638 43.3229C46.1458 43.4409 45.9954 43.5213 45.8318 43.5539C45.6681 43.5864 45.4984 43.5697 45.3443 43.5058C45.1901 43.442 45.0583 43.3338 44.9656 43.1951C44.8729 43.0563 44.8234 42.8932 44.8234 42.7263C44.8237 42.5026 44.9126 42.2882 45.0708 42.13C45.229 41.9718 45.4435 41.8828 45.6672 41.8826ZM37.2297 45.2576C37.3965 45.2576 37.5597 45.3071 37.6984 45.3998C37.8372 45.4925 37.9453 45.6243 38.0092 45.7784C38.073 45.9326 38.0898 46.1023 38.0572 46.2659C38.0246 46.4296 37.9443 46.5799 37.8263 46.6979C37.7083 46.8159 37.5579 46.8963 37.3943 46.9289C37.2306 46.9614 37.0609 46.9447 36.9068 46.8808C36.7526 46.817 36.6208 46.7088 36.5281 46.5701C36.4354 46.4313 36.3859 46.2682 36.3859 46.1013C36.3862 45.8776 36.4751 45.6632 36.6333 45.505C36.7915 45.3468 37.006 45.2578 37.2297 45.2576ZM28.7922 48.6326C28.959 48.6326 29.1222 48.6821 29.2609 48.7748C29.3997 48.8675 29.5078 48.9993 29.5717 49.1534C29.6355 49.3076 29.6523 49.4773 29.6197 49.6409C29.5871 49.8046 29.5068 49.9549 29.3888 50.0729C29.2708 50.1909 29.1204 50.2713 28.9568 50.3039C28.7931 50.3364 28.6234 50.3197 28.4693 50.2558C28.3151 50.192 28.1833 50.0838 28.0906 49.9451C27.9979 49.8063 27.9484 49.6432 27.9484 49.4763C27.9487 49.2526 28.0376 49.0382 28.1958 48.88C28.354 48.7218 28.5685 48.6328 28.7922 48.6326Z" fill="#132E52"/>
<path d="M38.1194 40.8443C38.2918 40.9843 38.5124 41.0506 38.7334 41.029C38.9543 41.0074 39.1579 40.8995 39.2999 40.7288C39.4418 40.5581 39.5108 40.3383 39.4918 40.1171C39.4729 39.8959 39.3674 39.6911 39.1985 39.5471C38.5118 38.9762 37.9033 38.3173 37.3887 37.5876H41.084C41.2308 38.2607 41.4028 38.9293 41.6001 39.5936C41.6313 39.7003 41.6834 39.7998 41.7532 39.8864C41.823 39.9729 41.9093 40.0448 42.007 40.0979C42.1047 40.151 42.212 40.1843 42.3226 40.1958C42.4332 40.2073 42.545 40.1968 42.6516 40.1649C42.7582 40.1331 42.8574 40.0805 42.9435 40.0101C43.0297 39.9398 43.101 39.8531 43.1536 39.7551C43.2061 39.657 43.2387 39.5496 43.2496 39.4389C43.2604 39.3282 43.2493 39.2165 43.2168 39.1101C43.066 38.6058 42.9315 38.0982 42.8133 37.5876H48.5224C48.4035 38.0978 48.269 38.6053 48.119 39.1101C48.0865 39.2165 48.0754 39.3282 48.0862 39.4389C48.0971 39.5496 48.1297 39.657 48.1822 39.7551C48.2348 39.8531 48.3062 39.9398 48.3923 40.0101C48.4785 40.0805 48.5777 40.1331 48.6842 40.1649C48.7908 40.1968 48.9026 40.2073 49.0132 40.1958C49.1238 40.1843 49.2311 40.151 49.3288 40.0979C49.4265 40.0448 49.5128 39.9729 49.5826 39.8864C49.6525 39.7998 49.7045 39.7003 49.7357 39.5936C49.9342 38.9298 50.1063 38.2612 50.2519 37.5876H53.9502C53.5737 38.119 53.1475 38.6134 52.6775 39.0641C52.516 39.2191 52.4227 39.4318 52.4181 39.6556C52.4135 39.8793 52.4979 40.0957 52.6529 40.2572C52.8078 40.4187 53.0206 40.512 53.2443 40.5166C53.4681 40.5212 53.6845 40.4367 53.846 40.2818C54.9996 39.1829 55.917 37.8602 56.5419 36.3946C57.1669 34.929 57.4863 33.3513 57.4805 31.7581C57.4769 29.0207 56.5243 26.3693 54.7849 24.2556C53.0456 22.1418 50.6272 20.6966 47.9417 20.166C47.9194 20.1609 47.8967 20.1564 47.8738 20.153C45.301 19.6638 42.6385 20.0434 40.3049 21.2322C37.9714 22.421 36.099 24.3516 34.9823 26.7205C33.8655 29.0894 33.5677 31.7623 34.1355 34.3189C34.7034 36.8755 36.1048 39.171 38.1194 40.8443ZM36.6936 35.9001C36.6091 35.9 36.525 35.9127 36.4442 35.9376C35.9664 34.8835 35.6734 33.7552 35.5779 32.6018H40.4694C40.5033 33.7063 40.6041 34.8077 40.7711 35.9001H36.6936ZM36.9476 26.6188H40.943C40.6725 28.036 40.5143 29.4723 40.4701 30.9143H35.5785C35.7038 29.3973 36.172 27.9285 36.9476 26.6188ZM55.7576 30.9143H50.8665C50.822 29.4723 50.6637 28.036 50.393 26.6188H54.3887C55.1643 27.9286 55.6323 29.3973 55.7576 30.9143ZM49.1783 30.9143H42.158C42.2057 29.4708 42.3748 28.0339 42.6637 26.6188H48.6729C48.9618 28.0339 49.1309 29.4708 49.1783 30.9143ZM42.4793 35.9001C42.3012 34.8087 42.1938 33.707 42.1578 32.6018H49.1785C49.1424 33.707 49.035 34.8087 48.8569 35.9001H42.4793ZM54.6425 35.9001H50.5652C50.7324 34.8078 50.8331 33.7063 50.8669 32.6018H55.7582C55.6658 33.7557 55.3745 34.8849 54.8972 35.9395C54.8148 35.9133 54.7289 35.9 54.6425 35.9001ZM53.1387 24.9313H50.0142C49.7816 24.0276 49.503 23.1365 49.1794 22.2613C50.6926 22.824 52.0498 23.7393 53.1387 24.9313ZM47.1586 21.743C47.5981 22.7802 47.9688 23.8453 48.2682 24.9313H43.0686C43.368 23.8453 43.7387 22.7802 44.1783 21.743C45.1664 21.5965 46.1707 21.5965 47.1588 21.743H47.1586ZM42.1575 22.2611C41.8335 23.1363 41.5547 24.0275 41.322 24.9313H38.1973C39.2864 23.7392 40.644 22.8238 42.1575 22.2611Z" fill="#132E52"/>
</svg>
