<svg width="90" height="91" viewBox="0 0 90 91" fill="none" xmlns="http://www.w3.org/2000/svg">
<path d="M45 90.2576C69.8528 90.2576 90 70.1104 90 45.2576C90 20.4048 69.8528 0.257568 45 0.257568C20.1472 0.257568 0 20.4048 0 45.2576C0 70.1104 20.1472 90.2576 45 90.2576Z" fill="#347FEF" fill-opacity="0.07"/>
<g clip-path="url(#clip0_68_3422)">
<path d="M38.658 42.3847L35.6803 43.9336C34.5476 44.5228 33.7149 45.5233 33.3355 46.7506C32.9615 47.9603 33.0796 49.2318 33.6679 50.3309C34.5198 51.9224 36.2217 52.8491 37.9405 52.8491C38.3286 52.8491 38.7173 52.8001 39.0976 52.7025L40.1068 57.6471L44.7176 55.2488L43.8083 50.7943L52.6183 50.837L44.1244 34.5076L38.658 42.3847ZM35.0627 49.5843C34.6755 48.8609 34.5988 48.0204 34.847 47.2178C35.1005 46.3976 35.6558 45.7297 36.4104 45.3371L38.8597 44.0631L41.7719 49.662L39.3226 50.9359C37.8231 51.7157 35.8723 51.0969 35.0627 49.5843ZM41.2375 55.2758L40.582 52.0641L42.2733 51.1843L42.9289 54.396L41.2375 55.2758ZM43.32 49.2099L40.1185 43.055L43.9302 37.5624L50.0056 49.2423L43.32 49.2099Z" fill="#132E52"/>
<path d="M50.8629 44.0489L51.593 45.4525C53.5243 44.4479 54.2783 42.0594 53.2737 40.1279C52.7872 39.1923 51.9653 38.5022 50.9596 38.1848C49.9538 37.8674 48.8846 37.9605 47.9492 38.4472L48.6793 39.8507C49.2399 39.559 49.8806 39.5033 50.4833 39.6935C51.0861 39.8838 51.5786 40.2973 51.8702 40.8581C52.4722 42.0155 52.0204 43.4469 50.8629 44.0489Z" fill="#132E52"/>
<path d="M56.5463 44.0828C57.1177 42.2725 56.9503 40.3486 56.0745 38.6653C55.1991 36.982 53.72 35.7403 51.9097 35.1689C50.0993 34.5976 48.1754 34.7649 46.4922 35.6405L47.2222 37.0441C48.5305 36.3635 50.0261 36.2333 51.4335 36.6776C52.8409 37.1217 53.9906 38.087 54.6712 39.3954C55.3517 40.7039 55.4819 42.1994 55.0378 43.6067C54.5936 45.014 53.6283 46.1638 52.3199 46.8443L53.0499 48.2478C54.7331 47.3721 55.9749 45.893 56.5463 44.0828Z" fill="#132E52"/>
<path d="M43.0742 42.7419L44.4775 42.011L45.2084 43.4143L43.8051 44.1452L43.0742 42.7419Z" fill="#132E52"/>
<path d="M44.5352 45.5466L45.9384 44.8157L46.6693 46.219L45.2661 46.9499L44.5352 45.5466Z" fill="#132E52"/>
<path d="M45 28.6482C40.8819 28.6482 36.9314 30.1663 33.8762 32.9229L34.9361 34.0976C37.7 31.6035 41.2741 30.2302 45 30.2302C53.2872 30.2302 60.0293 36.9723 60.0293 45.2595C60.0293 53.5467 53.2872 60.2888 45 60.2888C36.7128 60.2888 29.9707 53.5467 29.9707 45.2595C29.9707 41.5337 31.3441 37.9597 33.8379 35.1956L32.6633 34.1358C29.9068 37.1912 28.3887 41.1416 28.3887 45.2595C28.3887 54.4191 35.8405 61.8708 45 61.8708C54.1595 61.8708 61.6113 54.4191 61.6113 45.2595C61.6113 36.1 54.1595 28.6482 45 28.6482Z" fill="#132E52"/>
<path d="M64.0894 58.8097C62.8475 58.8097 61.6999 59.2208 60.7751 59.9139L58.4234 57.5623L57.3047 58.6809L59.6564 61.0326C58.9633 61.9572 58.5523 63.105 58.5523 64.3468C58.5523 67.4001 61.0363 69.884 64.0894 69.884C65.2375 69.884 66.3391 69.5352 67.2754 68.8755L66.364 67.5822C65.6959 68.053 64.9094 68.3019 64.0894 68.3019C61.9085 68.3019 60.1343 66.5277 60.1343 64.3468C60.1343 62.166 61.9085 60.3918 64.0894 60.3918C66.2703 60.3918 68.0445 62.166 68.0445 64.3468C68.0445 65.167 67.7957 65.9536 67.3249 66.6214L68.6179 67.533C69.2778 66.5969 69.6265 65.4951 69.6265 64.3468C69.6265 61.2936 67.1425 58.8097 64.0894 58.8097Z" fill="#132E52"/>
<path d="M44.209 24.4856V27.0642H45.791V24.4856C47.1542 24.1334 48.1641 22.8932 48.1641 21.4216C48.1641 19.677 46.7447 18.2576 45 18.2576C43.2553 18.2576 41.8359 19.677 41.8359 21.4216C41.8359 22.8932 42.8458 24.1334 44.209 24.4856ZM45 19.8396C45.8723 19.8396 46.582 20.5493 46.582 21.4216C46.582 22.294 45.8723 23.0037 45 23.0037C44.1277 23.0037 43.418 22.294 43.418 21.4216C43.418 20.5493 44.1277 19.8396 45 19.8396Z" fill="#132E52"/>
<path d="M45.791 66.0315V63.4529H44.209V66.0315C42.8458 66.3836 41.8359 67.6239 41.8359 69.0955C41.8359 70.8401 43.2553 72.2595 45 72.2595C46.7447 72.2595 48.1641 70.8401 48.1641 69.0955C48.1641 67.6239 47.1542 66.3836 45.791 66.0315ZM45 70.6775C44.1277 70.6775 43.418 69.9678 43.418 69.0955C43.418 68.2231 44.1277 67.5134 45 67.5134C45.8723 67.5134 46.582 68.2231 46.582 69.0955C46.582 69.9678 45.8723 70.6775 45 70.6775Z" fill="#132E52"/>
<path d="M68.8359 42.0935C67.3643 42.0935 66.1241 43.1034 65.772 44.4666H63.1934V46.0486H65.772C66.1241 47.4118 67.3643 48.4216 68.8359 48.4216C70.5806 48.4216 72 47.0022 72 45.2576C72 43.5129 70.5806 42.0935 68.8359 42.0935ZM68.8359 46.8396C67.9636 46.8396 67.2539 46.1299 67.2539 45.2576C67.2539 44.3852 67.9636 43.6755 68.8359 43.6755C69.7083 43.6755 70.418 44.3852 70.418 45.2576C70.418 46.1299 69.7083 46.8396 68.8359 46.8396Z" fill="#132E52"/>
<path d="M24.228 46.0486H26.8066V44.4666H24.228C23.8759 43.1034 22.6357 42.0935 21.1641 42.0935C19.4194 42.0935 18 43.5129 18 45.2576C18 47.0022 19.4194 48.4216 21.1641 48.4216C22.6357 48.4216 23.8759 47.4118 24.228 46.0486ZM19.582 45.2576C19.582 44.3852 20.2917 43.6755 21.1641 43.6755C22.0364 43.6755 22.7461 44.3852 22.7461 45.2576C22.7461 46.1299 22.0364 46.8396 21.1641 46.8396C20.2917 46.8396 19.582 46.1299 19.582 45.2576Z" fill="#132E52"/>
<path d="M25.9102 31.7068C27.1521 31.7068 28.2998 31.2958 29.2244 30.6026L31.5761 32.9544L32.6947 31.8358L30.343 29.484C31.0363 28.5593 31.4473 27.4116 31.4473 26.1697C31.4473 23.1165 28.9634 20.6326 25.9102 20.6326C22.8569 20.6326 20.373 23.1165 20.373 26.1697C20.373 29.2229 22.8569 31.7068 25.9102 31.7068ZM25.9102 22.2146C28.091 22.2146 29.8652 23.9888 29.8652 26.1697C29.8652 28.3506 28.091 30.1248 25.9102 30.1248C23.7293 30.1248 21.9551 28.3506 21.9551 26.1697C21.9551 23.9888 23.7293 22.2146 25.9102 22.2146Z" fill="#132E52"/>
<path d="M31.5761 57.5623L29.2244 59.914C28.2998 59.2209 27.1521 58.8098 25.9102 58.8098C22.8569 58.8098 20.373 61.2937 20.373 64.347C20.373 67.4002 22.8569 69.8841 25.9102 69.8841C28.9634 69.8841 31.4473 67.4002 31.4473 64.347C31.4473 63.1051 31.0363 61.9573 30.3431 61.0327L32.6949 58.681L31.5761 57.5623ZM25.9102 68.302C23.7293 68.302 21.9551 66.5278 21.9551 64.347C21.9551 62.1661 23.7293 60.3919 25.9102 60.3919C28.091 60.3919 29.8652 62.1661 29.8652 64.347C29.8652 66.5278 28.091 68.302 25.9102 68.302Z" fill="#132E52"/>
<path d="M58.4234 32.9544L60.7751 30.6027C61.6998 31.2958 62.8475 31.7069 64.0894 31.7069C67.1425 31.7069 69.6265 29.223 69.6265 26.1698C69.6265 23.1166 67.1425 20.6326 64.0894 20.6326C61.0363 20.6326 58.5523 23.1165 58.5523 26.1697C58.5523 27.4116 58.9633 28.5593 59.6564 29.4839L57.3047 31.8357L58.4234 32.9544ZM64.0894 22.2146C66.2703 22.2146 68.0445 23.9888 68.0445 26.1697C68.0445 28.3506 66.2703 30.1248 64.0894 30.1248C61.9085 30.1248 60.1343 28.3506 60.1343 26.1697C60.1343 23.9888 61.9085 22.2146 64.0894 22.2146Z" fill="#132E52"/>
</g>
<defs>
<clipPath id="clip0_68_3422">
<rect width="54" height="54" fill="white" transform="translate(18 18.2576)"/>
</clipPath>
</defs>
</svg>
