<svg width="91" height="91" viewBox="0 0 91 91" fill="none" xmlns="http://www.w3.org/2000/svg">
<path d="M45.334 90.2576C70.1868 90.2576 90.334 70.1104 90.334 45.2576C90.334 20.4048 70.1868 0.257568 45.334 0.257568C20.4812 0.257568 0.333984 20.4048 0.333984 45.2576C0.333984 70.1104 20.4812 90.2576 45.334 90.2576Z" fill="#347FEF" fill-opacity="0.07"/>
<g clip-path="url(#clip0_68_3446)">
<path d="M68.3698 31.0149L64.179 28.5897C63.6619 28.2903 63.0192 28.2902 62.5019 28.5897L58.3111 31.0149C58.291 31.0265 58.2718 31.0393 58.2523 31.0517L51.1982 26.9693V22.3565C51.1982 21.7642 50.8777 21.2055 50.3625 20.9075L46.1716 18.4819C45.6544 18.1828 45.0118 18.1827 44.4946 18.482L40.3039 20.9074C39.7882 21.2059 39.4682 21.765 39.4682 22.3564V26.9693L32.4141 31.0516C32.3946 31.0391 32.3754 31.0265 32.3553 31.0149L28.1643 28.5896C27.6471 28.2904 27.0046 28.2903 26.4873 28.5897L22.2966 31.0149C21.7838 31.3117 21.4609 31.8695 21.4609 32.4639V37.318C21.4609 37.9135 21.7812 38.4687 22.2966 38.767L26.4873 41.1923C26.5029 41.2014 26.519 41.2092 26.5348 41.2177V49.2972C26.519 49.3057 26.5029 49.3136 26.4873 49.3227L22.2968 51.7479C21.7842 52.0444 21.4609 52.6022 21.4609 53.197V58.0511C21.4609 58.6466 21.7812 59.2018 22.2966 59.5001L26.4873 61.9253C27.0066 62.2258 27.6493 62.2234 28.1644 61.9253L32.3553 59.5001C32.451 59.4446 32.5401 59.3802 32.6216 59.3083L39.4693 63.2712C39.4691 63.2822 39.4682 63.2933 39.4682 63.3044V68.1585C39.4682 68.754 39.7884 69.3092 40.3039 69.6075L44.4947 72.0329C45.0119 72.3321 45.6546 72.3321 46.1717 72.0328L50.3624 69.6075C50.8779 69.3092 51.1981 68.7539 51.1981 68.1585V63.3044C51.1981 63.2933 51.1973 63.2822 51.197 63.2712L58.0447 59.3083C58.1263 59.3802 58.2153 59.4446 58.3111 59.5001L62.502 61.9254C63.0204 62.2252 63.6629 62.2239 64.179 61.9253L68.3697 59.5001C68.8852 59.2018 69.2054 58.6465 69.2054 58.0511V53.197C69.2054 52.6051 68.8844 52.0455 68.3697 51.748L64.179 49.3227C64.1634 49.3136 64.1474 49.3058 64.1315 49.2972V41.2178C64.1474 41.2094 64.1634 41.2015 64.179 41.1924L68.3697 38.7671C68.8852 38.4688 69.2054 37.9135 69.2054 37.3181V32.464C69.2055 31.8793 68.8916 31.3169 68.3698 31.0149ZM59.0577 33.3457L62.5019 35.339L62.502 35.3391C62.5176 35.3482 62.5336 35.356 62.5494 35.3646V39.3922L59.1036 37.398C59.0752 37.3816 59.0576 37.351 59.0576 37.3182V33.3457H59.0577ZM50.629 28.4678L57.4768 32.4307C57.4765 32.4418 57.4757 32.4528 57.4757 32.4639V37.318C57.4757 37.3292 57.4765 37.3402 57.4768 37.3513L53.313 39.761C53.2122 39.6775 53.1211 39.6135 53.0167 39.5532L46.4252 35.7386C46.328 35.6824 46.2272 35.6352 46.1241 35.5952V31.1103C46.14 31.1018 46.1561 31.0939 46.1717 31.0849L50.3624 28.6597C50.4583 28.6041 50.5474 28.5397 50.629 28.4678ZM51.7605 40.6542L45.6326 44.2005C45.4481 44.3074 45.2187 44.3076 45.0337 44.2005L38.9058 40.6542L45.0337 37.1079C45.2187 37.001 45.4481 37.0011 45.6326 37.1079L51.7605 40.6542ZM49.616 27.2106C49.616 27.2434 49.5984 27.2739 49.5699 27.2903L46.124 29.2845V25.2568C46.1399 25.2483 46.156 25.2404 46.1716 25.2314L49.6159 23.2382V27.2106H49.616ZM45.2869 19.8515C45.3011 19.8433 45.3172 19.8392 45.3331 19.8392C45.349 19.8392 45.365 19.8432 45.3792 19.8514L48.8444 21.8568L45.3793 23.8621C45.3507 23.8785 45.3153 23.8785 45.2869 23.8621L45.287 23.8622L41.8218 21.8568L45.2869 19.8515ZM41.0502 23.2381L44.4945 25.2313C44.4946 25.2313 44.4946 25.2314 44.4946 25.2314C44.5102 25.2404 44.5262 25.2483 44.542 25.2567V29.2844L41.0962 27.2903C41.0677 27.2739 41.0501 27.2434 41.0501 27.2106V23.2381H41.0502ZM33.1896 32.4307L40.0373 28.4678C40.1189 28.5397 40.2079 28.6041 40.3038 28.6596L44.4946 31.0849C44.5102 31.0939 44.5262 31.1018 44.542 31.1102V35.5952C44.439 35.6352 44.3382 35.6824 44.241 35.7386L37.6496 39.5532C37.5475 39.6124 37.4549 39.6769 37.3532 39.761L33.1895 37.3513C33.1897 37.3403 33.1905 37.3292 33.1905 37.318V32.4639C33.1907 32.4528 33.1898 32.4418 33.1896 32.4307ZM27.2797 29.959C27.294 29.9508 27.3099 29.9467 27.3258 29.9467C27.3418 29.9467 27.3578 29.9508 27.372 29.959L30.8372 31.9643L27.3721 33.9697C27.3437 33.9861 27.3083 33.9862 27.2798 33.9698L23.8146 31.9642L27.2797 29.959ZM31.6086 33.3457V37.3182C31.6086 37.351 31.591 37.3816 31.5626 37.398L28.1168 39.392V35.3644C28.1326 35.3558 28.1487 35.3479 28.1643 35.3389L31.6086 33.3457ZM23.0889 37.3979C23.0604 37.3814 23.0428 37.3509 23.0428 37.3181V33.3456L26.4871 35.3389C26.5027 35.348 26.5188 35.3558 26.5346 35.3644V39.392L23.0889 37.3979ZM26.5347 60.1251L23.0889 58.1311C23.0604 58.1146 23.0428 58.0841 23.0428 58.0513V54.0787L26.4871 56.072C26.5027 56.0811 26.5188 56.0889 26.5346 56.0975L26.5347 60.1251ZM27.2797 54.7027L23.8146 52.6975L27.2797 50.692C27.294 50.6838 27.3099 50.6797 27.3258 50.6797C27.3418 50.6797 27.3578 50.6838 27.372 50.692L30.837 52.6973L27.3721 54.7027C27.3435 54.7191 27.3081 54.7191 27.2797 54.7027ZM31.6086 58.0512C31.6086 58.084 31.591 58.1146 31.5626 58.131L28.1168 60.1251V56.0975C28.1326 56.0889 28.1487 56.081 28.1643 56.072L31.6085 54.0787L31.6086 58.0512ZM32.414 51.7847C32.3945 51.7722 32.3752 51.7596 32.3551 51.7479L32.3552 51.748L28.1643 49.3226C28.1487 49.3135 28.1327 49.3057 28.1169 49.2971V41.2178C28.1327 41.2093 28.1488 41.2014 28.1644 41.1924L32.3553 38.7671C32.3753 38.7555 32.3945 38.7428 32.414 38.7304L36.5825 41.1428C36.5689 41.2406 36.5616 41.3399 36.5616 41.4401V49.0751C36.5616 49.1753 36.5689 49.2746 36.5825 49.3724L32.414 51.7847ZM40.2449 61.8923L33.1907 57.8099V53.1971C33.1907 53.1859 33.1899 53.1749 33.1897 53.1637L37.3534 50.7541C37.4457 50.8307 37.5442 50.9008 37.6497 50.9619L38.5994 51.5115C38.7243 51.5838 38.8605 51.618 38.995 51.618C39.268 51.618 39.5337 51.4764 39.6803 51.2232C39.8992 50.8449 39.7701 50.361 39.392 50.1423L38.4422 49.5927C38.258 49.486 38.1437 49.2877 38.1437 49.0751V42.0412L44.2413 45.5698C44.3384 45.6261 44.4392 45.6732 44.5422 45.7132V53.1228L42.5871 51.9914C42.2094 51.7728 41.725 51.9016 41.5063 52.2798C41.2874 52.6579 41.4165 53.1419 41.7946 53.3607L44.2413 54.7766C44.3384 54.8328 44.4392 54.88 44.5422 54.92V59.405C44.5263 59.4134 44.5103 59.4213 44.4947 59.4304L40.304 61.8556C40.2837 61.8672 40.2644 61.8799 40.2449 61.8923ZM44.5421 70.2326L41.0963 68.2385C41.0678 68.222 41.0502 68.1915 41.0502 68.1587V64.1862L44.4945 66.1794C44.5101 66.1885 44.5261 66.1963 44.542 66.2049L44.5421 70.2326ZM45.287 64.8102L41.8218 62.8049L45.2869 60.7996C45.3154 60.7832 45.3509 60.7833 45.3792 60.7995L48.8444 62.8049L45.3792 64.8102C45.3508 64.8267 45.3155 64.8268 45.287 64.8102ZM49.616 68.1587C49.616 68.1915 49.5984 68.222 49.5699 68.2385L46.124 70.2326V66.2049C46.1399 66.1963 46.156 66.1884 46.1716 66.1794L49.6159 64.1862V68.1587H49.616ZM57.4756 53.1971V57.8099L50.4214 61.8923C50.4019 61.8799 50.3827 61.8672 50.3625 61.8556L46.1717 59.4303C46.1561 59.4212 46.1401 59.4134 46.1243 59.4049V54.92C46.2272 54.88 46.3281 54.8328 46.4253 54.7766L53.0168 50.962C53.1223 50.9009 53.2207 50.8307 53.3131 50.7542L57.4769 53.1638C57.4764 53.1749 57.4756 53.1859 57.4756 53.1971ZM58.2523 51.7847L54.0838 49.3723C54.0974 49.2745 54.1047 49.1752 54.1047 49.075V47.5908C54.1047 47.1538 53.7506 46.7998 53.3137 46.7998C52.8767 46.7998 52.5226 47.1538 52.5226 47.5908V49.075C52.5226 49.2877 52.4083 49.4859 52.2241 49.5926L46.1241 53.1227V45.7131C46.2271 45.6731 46.328 45.626 46.4252 45.5697L52.5227 42.0411V43.8993C52.5227 44.3362 52.8768 44.6903 53.3138 44.6903C53.7507 44.6903 54.1048 44.3362 54.1048 43.8993V41.4401C54.1048 41.3399 54.0975 41.2406 54.0839 41.1428L58.2524 38.7304C58.2719 38.7427 58.2911 38.7555 58.3111 38.7671L62.502 41.1925C62.5176 41.2016 62.5336 41.2094 62.5494 41.218V49.2972C62.5336 49.3058 62.5175 49.3136 62.5019 49.3227L58.3114 51.7479C58.2912 51.7596 58.2719 51.7724 58.2523 51.7847ZM62.5494 60.1251L59.1036 58.131C59.0752 58.1146 59.0576 58.084 59.0576 58.0512V54.0787L62.5018 56.072L62.5019 56.0721C62.5175 56.0812 62.5335 56.089 62.5493 56.0976L62.5494 60.1251ZM67.6234 58.0512C67.6234 58.084 67.6058 58.1145 67.5773 58.131L64.1315 60.125V56.0974C64.1474 56.0889 64.1634 56.081 64.179 56.0719L67.6233 54.0786V58.0512H67.6234ZM66.8517 52.6975L63.3865 54.7028C63.358 54.7192 63.3227 54.7191 63.2942 54.7027L63.2943 54.7028L59.8293 52.6973L63.2942 50.6921C63.3227 50.6757 63.358 50.6755 63.3865 50.692L66.8517 52.6975ZM63.3866 33.9697C63.3581 33.9861 63.3228 33.986 63.2943 33.9696L63.2944 33.9697L59.8292 31.9642L63.2943 29.959C63.3085 29.9508 63.3246 29.9467 63.3405 29.9467C63.3564 29.9467 63.3723 29.9507 63.3866 29.9589L66.8518 31.9642L63.3866 33.9697ZM67.6234 37.3181C67.6234 37.3509 67.6058 37.3814 67.5773 37.3979L64.1315 39.392V35.3644C64.1474 35.3559 64.1634 35.348 64.179 35.3389L67.6233 33.3456V37.3181H67.6234Z" fill="#132E52"/>
</g>
<defs>
<clipPath id="clip0_68_3446">
<rect width="54" height="54" fill="white" transform="translate(18.334 18.2576)"/>
</clipPath>
</defs>
</svg>
